Coordinates
version=1
nRows=32
nColumns=12
inDegrees=yes

Units are S.I. units (second, meters, Newtons, ...)
Angles are in degrees

endheader
time	SC_y	SC_z	SC_x	AC_y	AC_z	AC_x	GH_y	GH_z	GH_yy	EL_x	PS_y
       0.0              -59.13          21.66           62.2           51.9         -13.64          18.38         -10.14         0.9104          127.9          28.81          16.56
   0.02985              -59.13          21.66          62.19           51.9         -13.64          18.38         -10.12         0.9141          127.9          28.81          16.56
   0.05969              -59.13          21.66          62.19           51.9         -13.64          18.37          -10.1         0.9181          127.9          28.81          16.56
   0.08954              -59.12          21.66          62.18           51.9         -13.64          18.37         -10.08         0.9223          127.9          28.81          16.56
    0.1194              -59.12          21.66          62.18          51.91         -13.64          18.36         -10.06         0.9268          127.9          28.81          16.56
    0.1492              -59.12          21.66          62.17          51.91         -13.64          18.36         -10.04         0.9316          127.9          28.81          16.56
    0.1791              -59.12          21.66          62.16          51.91         -13.64          18.35         -10.02         0.9367          127.9          28.81          16.56
    0.2089              -59.12          21.66          62.15          51.91         -13.64          18.34         -9.996         0.9422          127.9          28.81          16.56
    0.2388              -59.11          21.66          62.15          51.92         -13.65          18.34          -9.97         0.9481          128.0          28.81          16.56
    0.2686              -59.11          21.67          62.14          51.92         -13.65          18.33         -9.942         0.9543          128.0           28.8          16.55
    0.2985              -59.11          21.67          62.13          51.92         -13.65          18.32         -9.912         0.9611          128.0           28.8          16.55
    0.3283              -59.11          21.67          62.12          51.92         -13.65          18.31          -9.88         0.9684          128.0           28.8          16.55
    0.3582               -59.1          21.67          62.11          51.93         -13.65           18.3         -9.845         0.9762          128.0           28.8          16.55
     0.388               -59.1          21.67          62.09          51.93         -13.65          18.29         -9.807         0.9847          128.0           28.8          16.55
    0.4179              -59.09          21.67          62.08          51.94         -13.65          18.28         -9.767         0.9938          128.0           28.8          16.55
    0.4477              -59.09          21.68          62.07          51.94         -13.65          18.27         -9.723          1.004          128.0          28.79          16.55
    0.4775              -59.09          21.68          62.05          51.95         -13.65          18.25         -9.675          1.015          128.1          28.79          16.55
    0.5074              -59.08          21.68          62.04          51.95         -13.66          18.24         -9.623          1.026          128.1          28.79          16.55
    0.5372              -59.08          21.68          62.02          51.96         -13.66          18.22         -9.566          1.039          128.1          28.79          16.54
    0.5671              -59.07          21.69           62.0          51.96         -13.66           18.2         -9.503          1.053          128.1          28.78          16.54
    0.5969              -59.06          21.69          61.98          51.97         -13.66          18.18         -9.435          1.069          128.1          28.78          16.54
    0.6268              -59.06          21.69          61.95          51.98         -13.66          18.16         -9.359          1.086          128.2          28.78          16.54
    0.6566              -59.05           21.7          61.93          51.99         -13.67          18.14         -9.276          1.104          128.2          28.77          16.54
    0.6865              -59.04           21.7           61.9           52.0         -13.67          18.11         -9.184          1.125          128.2          28.77          16.53
    0.7163              -59.03          21.71          61.87          52.01         -13.67          18.09         -9.081          1.148          128.3          28.77          16.53
    0.7462              -59.02          21.71          61.83          52.02         -13.68          18.05         -8.967          1.174          128.3          28.76          16.53
     0.776              -59.01          21.72          61.79          52.04         -13.68          18.02         -8.838          1.203          128.4          28.75          16.52
    0.8059               -59.0          21.72          61.74          52.05         -13.68          17.98         -8.694          1.236          128.4          28.75          16.52
    0.8357              -58.98          21.73          61.69          52.07         -13.69          17.93         -8.531          1.272          128.5          28.74          16.51
    0.8656              -58.96          21.74          61.63          52.09         -13.69          17.88         -8.346          1.314          128.5          28.73          16.51
    0.8954              -58.94          21.75          61.57          52.11          -13.7          17.82         -8.135          1.362          128.6          28.72           16.5
    0.9252              -58.92          21.76          61.49          52.14         -13.71          17.75         -7.892          1.416          128.7          28.71          16.49
